# AST/ASF file generated using VICON BodyLanguage
# -----------------------------------------------
:version 1.10
:name VICON
:units
  mass 1.0
  length 0.45
  angle deg
:documentation
   .ast/.asf automatically generated from VICON data using
   VICON BodyBuilder and BodyLanguage model FoxedUp or BRILLIANT.MOD
:root
   order TX TY TZ RX RY RZ
   axis XYZ
   position 0 0 0  
   orientation 0 0 0 
:bonedata
  begin
     id 1 
     name lhipjoint
     direction 0.62366 -0.717238 0.310833 
     length 2.53602 
     axis 0 0 0  XYZ
  end
  begin
     id 2 
     name lfemur
     direction 0.34202 -0.939693 0  
     length 7.40817  
     axis 0 0 20  XYZ
    dof rx ry rz
    limits (-160.0 20.0)
           (-70.0 70.0)
           (-60.0 70.0)
  end
  begin
     id 3 
     name ltibia
     direction 0.34202 -0.939693 0   
     length 7.7045   
     axis 0 0 20   XYZ
    dof rx
    limits (-10.0 170.0)
  end
  begin
     id 4 
     name lfoot
     direction 0.0673888 -0.185149 0.980397   
     length 2.09456   
     axis -90 7.62852e-016 20   XYZ
    dof rx rz
    limits (-45.0 90.0)
           (-70.0 20.0)
  end
  begin
     id 5 
     name ltoes
     direction 1.53575e-011 -4.21994e-011 1   
     length 1.05543   
     axis -90 7.62852e-016 20   XYZ
    dof rx
    limits (-90.0 20.0)
  end
  begin
     id 6 
     name rhipjoint
     direction -0.489018 -0.800347 0.346851   
     length 2.27268  
     axis 0 0 0  XYZ 
  end
  begin
     id 7 
     name rfemur
     direction -0.34202 -0.939693 0   
     length 7.55487   
     axis 0 0 -20   XYZ
    dof rx ry rz
    limits (-160.0 20.0)
           (-70.0 70.0)
           (-70.0 60.0)
  end
  begin
     id 8 
     name rtibia
     direction -0.34202 -0.939693 0   
     length 7.78969   
     axis 0 0 -20   XYZ
    dof rx
    limits (-10.0 170.0)
 end
 begin
     id 9 
     name rfoot
     direction -0.0859318 -0.236096 0.967923   
     length 2.19143  
     axis -90 -7.62852e-016 -20   XYZ
    dof rx rz
    limits (-45.0 90.0)
           (-20.0 70.0)
  end
  begin
     id 10 
     name rtoes
     direction -1.53538e-011 -4.21989e-011 1   
     length 1.09845   
     axis -90 -7.62852e-016 -20   XYZ
    dof rx
    limits (-90.0 20.0)
  end
  begin
     id 11 
     name lowerback
     direction -0.00762546 0.998978 -0.0445553   
     length 1.98161   
     axis 0 0 0   XYZ
    dof rx ry rz
    limits (-20.0 45.0)
           (-30.0 30.0)
           (-30.0 30.0)
  end
  begin
     id 12 
     name upperback
     direction 0.0422361 0.998867 -0.0219156   
     length 1.97558   
     axis 0 0 0   XYZ
    dof rx ry rz
    limits (-20.0 45.0)
           (-30.0 30.0)
           (-30.0 30.0)
  end
  begin
     id 13 
     name thorax
     direction 0.0442465 0.999021 7.47603e-005   
     length 1.97799   
     axis 0 0 0   XYZ
    dof rx ry rz
    limits (-20.0 45.0)
           (-30.0 30.0)
           (-30.0 30.0)
  end
  begin
     id 14 
     name lowerneck
     direction 0.00312169 0.984641 0.174564   
     length 1.78995   
     axis 0 0 0   XYZ
    dof rx ry rz
    limits (-20.0 45.0)
           (-30.0 30.0)
           (-30.0 30.0)
  end
  begin
     id 15 
     name upperneck
     direction -0.0383028 0.985255 -0.166749   
     length 1.83053   
     axis 0 0 0   XYZ
    dof rx ry rz
    limits (-20.0 45.0)
           (-30.0 30.0)
           (-30.0 30.0)
  end
  begin
     id 16
     name head
     direction -0.0129546 0.997059 -0.0755386  
     length 1.84088  
     axis 0 0 0   XYZ
    dof rx ry rz
    limits (-20.0 45.0)
           (-30.0 30.0)
           (-30.0 30.0)
  end
  begin
     id 17 
     name lclavicle
     direction 0.912857 0.370519 -0.171488  
     length 3.51279  
     axis 0 0 0   XYZ
    dof ry rz
    limits (-20.0 10.0)
           (0.0 20.0)
  end
  begin
     id 18 
     name lhumerus
     direction 1 -4.48962e-011 3.64361e-027   
     length 4.95663   
     axis 180 -30 -90   XYZ
    dof rx ry rz
    limits (-60.0 90.0)
           (-90.0 90.0)
           (-90.0 90.0)
  end
  begin
     id 19
     name lradius
     direction 1 -4.48974e-011 5.97202e-027   
     length 3.38177   
     axis 180 -30 -90   XYZ
    dof rx
    limits (-10.0 170.0)
  end
  begin
     id 20
     name lwrist
     direction 1 -4.4896e-011 9.83288e-027   
     length 1.69088   
     axis -9.31221e-015 90 90   XYZ
    dof ry
    limits (-180.0 0.0)
 end
  begin
     id 21 
     name lhand
     direction 1 -4.4902e-011 1.96551e-026   
     length 0.662909   
     axis -1.25475e-014 90 90   XYZ
    dof rx rz
    limits (-90.0 90.0)
           (-45.0 45.0)
  end
  begin
     id 22 
     name lfingers
     direction 1 -4.48971e-011 3.93277e-026   
     length 0.534454   
     axis -2.50945e-014 90 90   XYZ
    dof rx
    limits (0.0 90.0)
  end
  begin
     id 23
     name lthumb
     direction 0.707107 -6.34933e-011 0.707107   
     length 0.767373   
     axis -90 45 -4.80359e-014   XYZ
    dof rx rz
    limits (-45.0 45.0)
           (-45.0 45.0)
  end
  begin
     id 24 
     name rclavicle
     direction -0.900919 0.395364 -0.178976   
     length 3.40627  
     axis 0 0 0   XYZ 
    dof ry rz
    limits (-10.0 20.0)
           (-20.0 0.0)
  end
  begin
     id 25 
     name rhumerus
     direction -1 -4.48969e-011 1.03875e-027  
     length 5.08365   
     axis 180 30 90   XYZ
    dof rx ry rz
    limits (-90.0 60.0)
           (-90.0 90.0)
           (-90.0 90.0)
  end
  begin
     id 26 
     name rradius
     direction -1 -4.48951e-011 5.02733e-027   
     length 3.35984   
     axis 180 30 90   XYZ
    dof rx
    limits (-10.0 170.0)
  end
  begin
     id 27 
     name rwrist
     direction -1 -4.49011e-011 9.82828e-027   
     length 1.67992   
     axis -9.31221e-015 -90 -90   XYZ
    dof ry
    limits (-180.0 0.0)
  end
  begin
     id 28
     name rhand
     direction -1 -4.48894e-011 1.96774e-026   
     length 0.820764   
     axis -1.25475e-014 -90 -90   XYZ
    dof rx rz
    limits (-90.0 90.0)
           (-45.0 45.0)
  end
  begin
     id 29
     name rfingers
     direction -1 -4.49095e-011 3.92833e-026   
     length 0.661721   
     axis -2.50945e-014 -90 -90   XYZ
    dof rx
    limits (0.0 90.0)
  end
  begin
     id 30
     name rthumb
     direction -0.707107 -6.34881e-011 0.707107   
     length 0.950103   
     axis -90 -45 4.80359e-014   XYZ
    dof rx rz
    limits (-45.0 45.0)
           (-45.0 45.0)
  end
:hierarchy
  begin
    root lhipjoint rhipjoint lowerback
    lhipjoint lfemur
    lfemur ltibia
    ltibia lfoot
    lfoot ltoes
    rhipjoint rfemur
    rfemur rtibia
    rtibia rfoot
    rfoot rtoes
    lowerback upperback
    upperback thorax
    thorax lowerneck lclavicle rclavicle
    lowerneck upperneck
    upperneck head
    lclavicle lhumerus
    lhumerus lradius
    lradius lwrist
    lwrist lhand lthumb
    lhand lfingers
    rclavicle rhumerus
    rhumerus rradius
    rradius rwrist
    rwrist rhand rthumb
    rhand rfingers
  end

#!OML:ASF I:\golf\golf\golf 2\Subject 1\2002-09-07\Subject1.ASF
:FULLY-SPECIFIED
:DEGREES
1
root -6.22499 17.8425 0.4034 -98.3373 85.4156 -114.548
lowerback 0.627011 1.35063 -1.47423
upperback 3.44362 1.82063 4.45653
thorax 3.00998 0.848017 5.48503
lowerneck -16.9502 -1.55819 1.56215
upperneck 41.0957 0.553486 -3.36887
head 18.2643 0.589265 -1.56294
rclavicle -3.97569e-015 -3.02153e-014
rhumerus -3.61921 4.22676 -101.672
rradius 18.5052
rwrist -31.8696
rhand -17.1367 -9.75487
rfingers 7.12502
rthumb 9.10339 -39.5384
lclavicle -3.97569e-015 -3.02153e-014
lhumerus -7.1669 -38.5797 109.948
lradius 22.1763
lwrist 43.8121
lhand -10.2149 69.8553
lfingers 7.12502
lthumb -164.223 80.7677
rfemur -28.9034 -1.84025 13.968
rtibia 28.4817
rfoot -9.49124 -10.7351
rtoes -5.52334
lfemur -27.2691 5.63785 -6.43402
ltibia 26.2026
lfoot -10.7789 -0.560152
ltoes -22.2513
2
root -6.22612 17.8431 0.401303 -98.4266 85.4001 -114.63
lowerback 0.652474 1.34807 -1.44779
upperback 3.43678 1.81739 4.45768
thorax 2.98951 0.84769 5.47007
lowerneck -16.9384 -1.55251 1.54951
upperneck 41.0363 0.543762 -3.33931
head 18.2251 0.584962 -1.54766
rclavicle -2.26615e-014 -2.54444e-014
rhumerus -3.72905 4.52108 -101.639
rradius 18.6481
rwrist -32.0802
rhand -17.2516 -9.71285
rfingers 7.12502
rthumb 8.9926 -39.5012
lclavicle -2.26615e-014 -2.54444e-014
lhumerus -7.20794 -38.5537 110.075
lradius 22.0994
lwrist 43.2753
lhand -10.3132 70.064
lfingers 7.12502
lthumb -164.318 80.5515
rfemur -28.851 -1.81569 13.9677
rtibia 28.4083
rfoot -9.49115 -10.7646
rtoes -5.62074
lfemur -27.3066 5.66807 -6.43266
ltibia 26.2501
lfoot -10.8164 -0.6577
ltoes -21.9339
3
root -6.22711 17.843 0.398903 -98.082 85.3732 -114.267
lowerback 0.66831 1.34635 -1.38334
upperback 3.44687 1.81475 4.45218
thorax 2.99319 0.848197 5.42724
lowerneck -16.9605 -1.55208 1.5755
upperneck 40.9949 0.542803 -3.38088
head 18.2065 0.580285 -1.57198
rclavicle 7.95139e-016 2.22639e-014
rhumerus -3.81346 4.7595 -101.605
rradius 18.785
rwrist -32.404
rhand -17.124 -9.59933
rfingers 7.12502
rthumb 9.11565 -39.3823
lclavicle 7.95139e-016 2.22639e-014
lhumerus -7.24489 -38.08 110.215
lradius 21.8752
lwrist 42.2052
lhand -10.1498 69.9351
lfingers 7.12502
lthumb -164.161 80.6928
rfemur -28.7992 -1.69481 13.9708
rtibia 28.3465
rfoot -9.50032 -10.8736
rtoes -5.65826
lfemur -27.302 5.77223 -6.43449
ltibia 26.2685
lfoot -10.8049 -0.705392
ltoes -22.204
4
root -6.22828 17.8436 0.396099 -97.8204 85.3733 -113.979
lowerback 0.694046 1.35853 -1.34512
upperback 3.45153 1.83096 4.43315
thorax 2.98335 0.857712 5.38487
lowerneck -16.984 -1.56609 1.59179
upperneck 40.9956 0.511211 -3.3778
head 18.2116 0.570158 -1.58008
rclavicle -1.15295e-014 1.98785e-014
rhumerus -3.84958 4.80699 -101.6
rradius 18.8682
rwrist -32.5659
rhand -17.0672 -9.62932
rfingers 7.12502
rthumb 9.17046 -39.4099
lclavicle -1.15295e-014 1.98785e-014
lhumerus -7.2675 -37.7985 110.266
lradius 21.6707
lwrist 41.6935
lhand -10.0346 69.6558
lfingers 7.12502
lthumb -164.05 80.981
rfemur -28.7455 -1.68257 13.9675
rtibia 28.2693
rfoot -9.47044 -10.8708
rtoes -5.52355
lfemur -27.2863 5.79676 -6.44352
ltibia 26.3067
lfoot -10.8334 -0.712422
ltoes -22.1231
5
root -6.23041 17.8453 0.39301 -97.779 85.3339 -113.931
lowerback 0.715805 1.376 -1.27442
upperback 3.4558 1.8542 4.42796
thorax 2.97518 0.871681 5.33878
lowerneck -17.0289 -1.57809 1.59107
upperneck 40.9873 0.467078 -3.33047
head 18.2166 0.557788 -1.56685
rclavicle -2.10712e-014 -2.62396e-014
rhumerus -3.85908 4.8158 -101.585
rradius 18.972
rwrist -32.7485
rhand -17.1006 -9.71953
rfingers 7.12502
rthumb 9.13824 -39.5015
lclavicle -2.10712e-014 -2.62396e-014
lhumerus -7.28728 -37.8944 110.267
lradius 21.6275
lwrist 41.6795
lhand -10.175 69.7478
lfingers 7.12502
lthumb -164.185 80.8782
rfemur -28.7039 -1.70808 14.0073
rtibia 28.183
rfoot -9.43455 -10.8445
rtoes -4.76906
lfemur -27.316 5.76927 -6.3943
ltibia 26.3639
lfoot -10.8652 -0.772228
ltoes -21.325
6
root -6.23288 17.8461 0.38994 -97.1236 85.2031 -113.289
lowerback 0.704042 1.40334 -1.11688
upperback 3.47072 1.88995 4.46231
thorax 2.99718 0.893771 5.28649
lowerneck -17.0884 -1.57811 1.61325
upperneck 40.9402 0.454936 -3.35031
head 18.204 0.550487 -1.58272
rclavicle 2.78299e-015 2.06736e-014
rhumerus -3.87543 4.95535 -101.592
rradius 19.1142
rwrist -33.0275
rhand -17.2541 -9.80411
rfingers 7.12502
rthumb 8.99019 -39.5925
lclavicle 2.78299e-015 2.06736e-014
lhumerus -7.25864 -37.8754 110.288
lradius 21.5643
lwrist 41.4566
lhand -10.2338 69.8193
lfingers 7.12502
lthumb -164.241 80.8022
rfemur -28.6861 -1.61762 14.1377
rtibia 28.1044
rfoot -9.46183 -10.8908
rtoes -3.60702
lfemur -27.3494 5.77089 -6.21858
ltibia 26.4347
lfoot -10.8775 -0.82856
ltoes -20.7599
7
root -6.23484 17.8449 0.388033 -96.1439 85.0125 -112.336
lowerback 0.670577 1.43067 -0.9371
upperback 3.47113 1.9256 4.53905
thorax 3.01598 0.916556 5.26657
lowerneck -17.121 -1.57541 1.60422
upperneck 40.9115 0.477162 -3.39773
head 18.1972 0.549766 -1.59895
rclavicle -7.95139e-016 -1.19271e-014
rhumerus -3.88643 4.93545 -101.631
rradius 19.1509
rwrist -33.0191
rhand -17.3231 -9.91828
rfingers 7.12502
rthumb 8.92361 -39.7096
lclavicle -7.95139e-016 -1.19271e-014
lhumerus -7.2515 -37.8523 110.34
lradius 21.5401
lwrist 41.3035
lhand -10.2331 69.7809
lfingers 7.12502
lthumb -164.241 80.8406
rfemur -28.697 -1.52811 14.3496
rtibia 28.0442
rfoot -9.4951 -10.9021
rtoes -3.35441
lfemur -27.3655 5.83758 -5.97497
ltibia 26.5004
lfoot -10.9132 -0.898889
ltoes -20.3705
8
root -6.23735 17.8434 0.3862 -96.0199 84.9251 -112.257
lowerback 0.630594 1.43638 -0.854758
upperback 3.4517 1.93247 4.57128
thorax 3.01919 0.922397 5.25453
lowerneck -17.0978 -1.57813 1.57775
upperneck 40.8547 0.479979 -3.40804
head 18.1576 0.543514 -1.59718
rclavicle -7.95139e-015 0
rhumerus -3.86852 4.7633 -101.666
rradius 19.1062
rwrist -32.8552
rhand -17.1932 -10.0924
rfingers 7.12502
rthumb 9.04893 -39.8783
lclavicle -7.95139e-015 0
lhumerus -7.31016 -38.0463 110.383
lradius 21.6517
lwrist 41.3056
lhand -10.3728 69.9678
lfingers 7.12502
lthumb -164.375 80.6432
rfemur -28.7428 -1.54941 14.4493
rtibia 28.017
rfoot -9.45547 -10.8784
rtoes -3.84451
lfemur -27.4525 5.93333 -5.91346
ltibia 26.5358
lfoot -10.9083 -0.974918
ltoes -20.1885
9
root -6.24013 17.8435 0.383065 -96.8669 85.0645 -113.108
lowerback 0.628549 1.43784 -0.939643
upperback 3.4598 1.93415 4.49432
thorax 3.0283 0.920573 5.22215
lowerneck -17.0905 -1.5801 1.6143
upperneck 40.7706 0.444791 -3.39884
head 18.1039 0.532939 -1.60502
rclavicle -2.78299e-015 5.24792e-014
rhumerus -3.81785 4.62236 -101.712
rradius 19.0926
rwrist -32.8014
rhand -17.1171 -10.2534
rfingers 7.12502
rthumb 9.12235 -40.0361
lclavicle -2.78299e-015 5.24792e-014
lhumerus -7.40141 -38.5232 110.392
lradius 21.8342
lwrist 41.3151
lhand -10.6419 70.5054
lfingers 7.12502
lthumb -164.635 80.0856
rfemur -28.7548 -1.64894 14.287
rtibia 28.0274
rfoot -9.43241 -10.8464
rtoes -4.01361
lfemur -27.5358 5.92951 -6.13581
ltibia 26.5405
lfoot -10.901 -0.960201
ltoes -20.7205
10
root -6.24188 17.8457 0.38016 -97.6399 85.2299 -113.831
lowerback 0.675303 1.42771 -1.07867
upperback 3.48389 1.92162 4.43479
thorax 3.0258 0.91022 5.23755
lowerneck -17.1279 -1.55424 1.62
upperneck 40.7644 0.472324 -3.38263
head 18.1116 0.545934 -1.5935
rclavicle 9.14409e-015 1.19271e-014
rhumerus -3.76564 4.45491 -101.795
rradius 19.0213
rwrist -32.673
rhand -17.2687 -10.2475
rfingers 7.12502
rthumb 8.97602 -40.0365
lclavicle 9.14409e-015 1.19271e-014
lhumerus -7.47124 -38.8449 110.419
lradius 21.9126
lwrist 41.2063
lhand -10.8755 71.0777
lfingers 7.12502
lthumb -164.86 79.4961
rfemur -28.7088 -1.67739 14.0809
rtibia 28.0519
rfoot -9.49635 -10.8445
rtoes -3.63691
lfemur -27.5152 5.89805 -6.35917
ltibia 26.531
lfoot -10.9083 -0.953063
ltoes -21.1897
11
root -6.24232 17.8462 0.378696 -97.1403 85.2414 -113.299
lowerback 0.696786 1.42317 -1.11446
upperback 3.49257 1.9162 4.45684
thorax 3.02159 0.906451 5.2806
lowerneck -17.1582 -1.51404 1.58678
upperneck 40.8035 0.556051 -3.38989
head 18.1471 0.574114 -1.57541
rclavicle -1.07344e-014 -1.59028e-014
rhumerus -3.79053 4.48537 -101.847
rradius 19.012
rwrist -32.8411
rhand -17.4987 -10.1449
rfingers 7.12502
rthumb 8.75412 -39.9433
lclavicle -1.07344e-014 -1.59028e-014
lhumerus -7.45107 -38.6525 110.429
lradius 21.7686
lwrist 40.718
lhand -10.7099 71.1422
lfingers 7.12502
lthumb -164.7 79.4438
rfemur -28.6866 -1.57633 14.0504
rtibia 28.0702
rfoot -9.56976 -10.8832
rtoes -3.15562
lfemur -27.4307 5.92664 -6.35856
ltibia 26.5191
lfoot -10.9285 -0.965533
ltoes -21.2264
12
root -6.24252 17.8436 0.377536 -96.3425 85.1969 -112.47
lowerback 0.712888 1.45292 -1.06138
upperback 3.50223 1.95597 4.4657
thorax 3.01988 0.927996 5.25994
lowerneck -17.1934 -1.50103 1.60144
upperneck 40.8508 0.575089 -3.38438
head 18.1856 0.586394 -1.5728
rclavicle -8.34896e-015 2.8625e-014
rhumerus -3.87151 4.65953 -101.834
rradius 19.1343
rwrist -33.2861
rhand -17.4926 -10.1537
rfingers 7.12502
rthumb 8.76003 -39.9519
lclavicle -8.34896e-015 2.8625e-014
lhumerus -7.42746 -38.4613 110.424
lradius 21.5987
lwrist 40.159
lhand -10.3739 70.7186
lfingers 7.12502
lthumb -164.376 79.8923
rfemur -28.6729 -1.51436 14.0994
rtibia 28.0794
rfoot -9.59608 -10.8882
rtoes -2.96826
lfemur -27.3449 5.98321 -6.29133
ltibia 26.5063
lfoot -10.9991 -0.956662
ltoes -21.4228
13
root -6.2437 17.8421 0.373515 -96.6131 85.2157 -112.716
lowerback 0.760212 1.453 -1.07787
upperback 3.49496 1.95708 4.47035
thorax 2.98488 0.928828 5.27234
lowerneck -17.2265 -1.49963 1.56474
upperneck 40.9111 0.583994 -3.3472
head 18.2308 0.591551 -1.5481
rclavicle 8.74653e-015 4.05521e-014
rhumerus -3.91078 4.60533 -101.82
rradius 19.1203
rwrist -33.2739
rhand -17.3449 -10.3108
rfingers 7.12502
rthumb 8.9025 -40.103
lclavicle 8.74653e-015 4.05521e-014
lhumerus -7.44793 -38.3742 110.483
lradius 21.4967
lwrist 39.8397
lhand -10.3678 70.4082
lfingers 7.12502
lthumb -164.371 80.2032
rfemur -28.6508 -1.61067 14.0752
rtibia 28.0737
rfoot -9.60027 -10.8134
rtoes -2.89188
lfemur -27.3308 6.01212 -6.34344
ltibia 26.5015
lfoot -11.0511 -0.967712
ltoes -21.8469
14
root -6.24563 17.8429 0.366878 -97.291 85.3579 -113.384
lowerback 0.818506 1.40428 -1.25592
upperback 3.48022 1.89383 4.4849
thorax 2.93751 0.892824 5.38593
lowerneck -17.2448 -1.47628 1.48811
upperneck 40.9307 0.663155 -3.37425
head 18.2518 0.607335 -1.53192
rclavicle -1.11319e-014 -3.26007e-014
rhumerus -3.9332 4.64897 -101.822
rradius 19.0543
rwrist -33.2405
rhand -17.4252 -10.3933
rfingers 7.12502
rthumb 8.82503 -40.1887
lclavicle -1.11319e-014 -3.26007e-014
lhumerus -7.4393 -38.2883 110.52
lradius 21.471
lwrist 39.6924
lhand -10.4941 70.5788
lfingers 7.12502
lthumb -164.492 80.0231
rfemur -28.6295 -1.77731 13.91
rtibia 28.0445
rfoot -9.58911 -10.6618
rtoes -2.67877
lfemur -27.3397 5.93403 -6.52828
ltibia 26.5056
lfoot -11.035 -0.942354
ltoes -21.7255
15
root -6.24714 17.8438 0.361196 -97.5164 85.4567 -113.584
lowerback 0.870603 1.38146 -1.35776
upperback 3.47956 1.86441 4.48406
thorax 2.90766 0.875714 5.44103
lowerneck -17.252 -1.45468 1.48137
upperneck 40.9199 0.718874 -3.42527
head 18.2504 0.620529 -1.54371
rclavicle -1.82882e-014 -2.94201e-014
rhumerus -3.94635 4.68206 -101.848
rradius 19.0496
rwrist -33.4407
rhand -17.6275 -10.215
rfingers 7.12502
rthumb 8.62978 -40.0186
lclavicle -1.82882e-014 -2.94201e-014
lhumerus -7.45379 -38.4106 110.52
lradius 21.5028
lwrist 39.6449
lhand -10.4978 70.7847
lfingers 7.12502
lthumb -164.496 79.817
rfemur -28.5911 -1.93557 13.8175
rtibia 28.0032
rfoot -9.51582 -10.5301
rtoes -3.03161
lfemur -27.3176 5.83054 -6.63441
ltibia 26.5003
lfoot -11.001 -0.906959
ltoes -20.9465
